<mxfile host="app.diagrams.net" modified="2024-05-18T04:13:43.089Z" agent="Mozilla/5.0 (X11; Linux x86_64) AppleWebKit/537.36 (KHTML, like Gecko) Chrome/125.0.0.0 Safari/537.36" etag="gdims7B-TGwsbFzMQnHX" version="24.4.4" type="github">
  <diagram name="Page-1" id="n5FpQbeOHGgZpD3ZCfMm">
    <mxGraphModel dx="819" dy="402" grid="1" gridSize="10" guides="1" tooltips="1" connect="1" arrows="1" fold="1" page="1" pageScale="1" pageWidth="850" pageHeight="1100" math="0" shadow="0">
      <root>
        <mxCell id="0" />
        <mxCell id="1" parent="0" />
        <mxCell id="5OTDI1hytYTjAv2QG5Bh-7" value="" style="whiteSpace=wrap;html=1;aspect=fixed;" vertex="1" parent="1">
          <mxGeometry x="160" y="40" width="680" height="680" as="geometry" />
        </mxCell>
        <mxCell id="5OTDI1hytYTjAv2QG5Bh-16" value="" style="rounded=0;whiteSpace=wrap;html=1;" vertex="1" parent="1">
          <mxGeometry x="10" y="100" width="130" height="390" as="geometry" />
        </mxCell>
        <mxCell id="5OTDI1hytYTjAv2QG5Bh-1" value="&lt;div&gt;&lt;br&gt;&lt;/div&gt;&lt;div&gt;&lt;br&gt;&lt;/div&gt;&lt;div&gt;Application POD&lt;/div&gt;" style="rounded=0;whiteSpace=wrap;html=1;" vertex="1" parent="1">
          <mxGeometry x="20" y="140" width="100" height="50" as="geometry" />
        </mxCell>
        <mxCell id="5OTDI1hytYTjAv2QG5Bh-18" style="edgeStyle=orthogonalEdgeStyle;rounded=0;orthogonalLoop=1;jettySize=auto;html=1;exitX=1;exitY=0.5;exitDx=0;exitDy=0;entryX=1;entryY=0.5;entryDx=0;entryDy=0;" edge="1" parent="1" source="5OTDI1hytYTjAv2QG5Bh-4" target="5OTDI1hytYTjAv2QG5Bh-17">
          <mxGeometry relative="1" as="geometry" />
        </mxCell>
        <mxCell id="5OTDI1hytYTjAv2QG5Bh-4" value="Agent" style="rounded=0;whiteSpace=wrap;html=1;" vertex="1" parent="1">
          <mxGeometry x="30" y="150" width="60" height="20" as="geometry" />
        </mxCell>
        <mxCell id="5OTDI1hytYTjAv2QG5Bh-5" value="&lt;div&gt;&lt;br&gt;&lt;/div&gt;&lt;div&gt;&lt;br&gt;&lt;/div&gt;&lt;div&gt;Application POD&lt;/div&gt;" style="rounded=0;whiteSpace=wrap;html=1;" vertex="1" parent="1">
          <mxGeometry x="20" y="420" width="100" height="50" as="geometry" />
        </mxCell>
        <mxCell id="5OTDI1hytYTjAv2QG5Bh-19" style="edgeStyle=orthogonalEdgeStyle;rounded=0;orthogonalLoop=1;jettySize=auto;html=1;exitX=0.5;exitY=0;exitDx=0;exitDy=0;" edge="1" parent="1" source="5OTDI1hytYTjAv2QG5Bh-6" target="5OTDI1hytYTjAv2QG5Bh-17">
          <mxGeometry relative="1" as="geometry" />
        </mxCell>
        <mxCell id="5OTDI1hytYTjAv2QG5Bh-6" value="Agent" style="rounded=0;whiteSpace=wrap;html=1;" vertex="1" parent="1">
          <mxGeometry x="30" y="430" width="60" height="20" as="geometry" />
        </mxCell>
        <mxCell id="5OTDI1hytYTjAv2QG5Bh-9" value="" style="ellipse;whiteSpace=wrap;html=1;aspect=fixed;" vertex="1" parent="1">
          <mxGeometry x="55" y="210" width="10" height="10" as="geometry" />
        </mxCell>
        <mxCell id="5OTDI1hytYTjAv2QG5Bh-10" value="" style="ellipse;whiteSpace=wrap;html=1;aspect=fixed;" vertex="1" parent="1">
          <mxGeometry x="55" y="240" width="10" height="10" as="geometry" />
        </mxCell>
        <mxCell id="5OTDI1hytYTjAv2QG5Bh-11" value="" style="ellipse;whiteSpace=wrap;html=1;aspect=fixed;" vertex="1" parent="1">
          <mxGeometry x="55" y="270" width="10" height="10" as="geometry" />
        </mxCell>
        <mxCell id="5OTDI1hytYTjAv2QG5Bh-12" value="" style="ellipse;whiteSpace=wrap;html=1;aspect=fixed;" vertex="1" parent="1">
          <mxGeometry x="55" y="300" width="10" height="10" as="geometry" />
        </mxCell>
        <mxCell id="5OTDI1hytYTjAv2QG5Bh-13" value="" style="ellipse;whiteSpace=wrap;html=1;aspect=fixed;" vertex="1" parent="1">
          <mxGeometry x="55" y="330" width="10" height="10" as="geometry" />
        </mxCell>
        <mxCell id="5OTDI1hytYTjAv2QG5Bh-14" value="" style="ellipse;whiteSpace=wrap;html=1;aspect=fixed;" vertex="1" parent="1">
          <mxGeometry x="55" y="360" width="10" height="10" as="geometry" />
        </mxCell>
        <mxCell id="5OTDI1hytYTjAv2QG5Bh-15" value="" style="ellipse;whiteSpace=wrap;html=1;aspect=fixed;" vertex="1" parent="1">
          <mxGeometry x="55" y="390" width="10" height="10" as="geometry" />
        </mxCell>
        <mxCell id="5OTDI1hytYTjAv2QG5Bh-17" value="End Point" style="rounded=0;whiteSpace=wrap;html=1;rotation=-90;" vertex="1" parent="1">
          <mxGeometry x="150" y="290" width="120" height="30" as="geometry" />
        </mxCell>
        <mxCell id="5OTDI1hytYTjAv2QG5Bh-20" value="" style="shape=cylinder3;whiteSpace=wrap;html=1;boundedLbl=1;backgroundOutline=1;size=15;rotation=90;" vertex="1" parent="1">
          <mxGeometry x="280" y="265" width="30" height="80" as="geometry" />
        </mxCell>
        <mxCell id="5OTDI1hytYTjAv2QG5Bh-21" style="edgeStyle=orthogonalEdgeStyle;rounded=0;orthogonalLoop=1;jettySize=auto;html=1;entryX=0.5;entryY=1;entryDx=0;entryDy=0;entryPerimeter=0;" edge="1" parent="1" source="5OTDI1hytYTjAv2QG5Bh-17" target="5OTDI1hytYTjAv2QG5Bh-20">
          <mxGeometry relative="1" as="geometry" />
        </mxCell>
        <mxCell id="5OTDI1hytYTjAv2QG5Bh-22" value="Kafka" style="text;html=1;align=center;verticalAlign=middle;whiteSpace=wrap;rounded=0;" vertex="1" parent="1">
          <mxGeometry x="250" y="290" width="60" height="30" as="geometry" />
        </mxCell>
        <mxCell id="5OTDI1hytYTjAv2QG5Bh-25" value="" style="rounded=0;whiteSpace=wrap;html=1;" vertex="1" parent="1">
          <mxGeometry x="250" y="370" width="240" height="60" as="geometry" />
        </mxCell>
        <mxCell id="5OTDI1hytYTjAv2QG5Bh-26" value="Kafka Consumer Groups with Parallelism" style="text;html=1;align=center;verticalAlign=middle;whiteSpace=wrap;rounded=0;" vertex="1" parent="1">
          <mxGeometry x="250" y="400" width="240" height="30" as="geometry" />
        </mxCell>
        <mxCell id="5OTDI1hytYTjAv2QG5Bh-27" value="" style="rounded=0;whiteSpace=wrap;html=1;" vertex="1" parent="1">
          <mxGeometry x="260" y="380" width="30" height="20" as="geometry" />
        </mxCell>
        <mxCell id="5OTDI1hytYTjAv2QG5Bh-28" value="" style="rounded=0;whiteSpace=wrap;html=1;" vertex="1" parent="1">
          <mxGeometry x="450" y="380" width="30" height="20" as="geometry" />
        </mxCell>
        <mxCell id="5OTDI1hytYTjAv2QG5Bh-29" value="" style="ellipse;whiteSpace=wrap;html=1;aspect=fixed;" vertex="1" parent="1">
          <mxGeometry x="310" y="385" width="10" height="10" as="geometry" />
        </mxCell>
        <mxCell id="5OTDI1hytYTjAv2QG5Bh-30" value="" style="ellipse;whiteSpace=wrap;html=1;aspect=fixed;" vertex="1" parent="1">
          <mxGeometry x="330" y="385" width="10" height="10" as="geometry" />
        </mxCell>
        <mxCell id="5OTDI1hytYTjAv2QG5Bh-31" value="" style="ellipse;whiteSpace=wrap;html=1;aspect=fixed;" vertex="1" parent="1">
          <mxGeometry x="350" y="385" width="10" height="10" as="geometry" />
        </mxCell>
        <mxCell id="5OTDI1hytYTjAv2QG5Bh-32" value="" style="ellipse;whiteSpace=wrap;html=1;aspect=fixed;" vertex="1" parent="1">
          <mxGeometry x="370" y="385" width="10" height="10" as="geometry" />
        </mxCell>
        <mxCell id="5OTDI1hytYTjAv2QG5Bh-33" value="" style="ellipse;whiteSpace=wrap;html=1;aspect=fixed;" vertex="1" parent="1">
          <mxGeometry x="390" y="385" width="10" height="10" as="geometry" />
        </mxCell>
        <mxCell id="5OTDI1hytYTjAv2QG5Bh-34" value="" style="ellipse;whiteSpace=wrap;html=1;aspect=fixed;" vertex="1" parent="1">
          <mxGeometry x="410" y="385" width="10" height="10" as="geometry" />
        </mxCell>
        <mxCell id="5OTDI1hytYTjAv2QG5Bh-35" value="" style="ellipse;whiteSpace=wrap;html=1;aspect=fixed;" vertex="1" parent="1">
          <mxGeometry x="430" y="385" width="10" height="10" as="geometry" />
        </mxCell>
        <mxCell id="5OTDI1hytYTjAv2QG5Bh-37" value="" style="curved=1;endArrow=classic;html=1;rounded=0;exitX=0.5;exitY=0;exitDx=0;exitDy=0;entryX=1;entryY=0;entryDx=0;entryDy=52.5;entryPerimeter=0;" edge="1" parent="1" source="5OTDI1hytYTjAv2QG5Bh-27" target="5OTDI1hytYTjAv2QG5Bh-20">
          <mxGeometry width="50" height="50" relative="1" as="geometry">
            <mxPoint x="310" y="290" as="sourcePoint" />
            <mxPoint x="360" y="240" as="targetPoint" />
            <Array as="points">
              <mxPoint x="275" y="360" />
              <mxPoint x="275" y="340" />
              <mxPoint x="280" y="330" />
            </Array>
          </mxGeometry>
        </mxCell>
        <mxCell id="5OTDI1hytYTjAv2QG5Bh-38" value="" style="curved=1;endArrow=classic;html=1;rounded=0;exitX=0.25;exitY=0;exitDx=0;exitDy=0;entryX=0.75;entryY=1;entryDx=0;entryDy=0;" edge="1" parent="1" source="5OTDI1hytYTjAv2QG5Bh-28" target="5OTDI1hytYTjAv2QG5Bh-22">
          <mxGeometry width="50" height="50" relative="1" as="geometry">
            <mxPoint x="285" y="390" as="sourcePoint" />
            <mxPoint x="293" y="330" as="targetPoint" />
            <Array as="points">
              <mxPoint x="380" y="350" />
              <mxPoint x="290" y="340" />
            </Array>
          </mxGeometry>
        </mxCell>
        <mxCell id="5OTDI1hytYTjAv2QG5Bh-40" value="" style="rounded=0;whiteSpace=wrap;html=1;" vertex="1" parent="1">
          <mxGeometry x="250" y="465" width="240" height="125" as="geometry" />
        </mxCell>
        <mxCell id="5OTDI1hytYTjAv2QG5Bh-39" value="" style="shape=cylinder3;whiteSpace=wrap;html=1;boundedLbl=1;backgroundOutline=1;size=15;" vertex="1" parent="1">
          <mxGeometry x="265" y="480" width="60" height="80" as="geometry" />
        </mxCell>
        <mxCell id="5OTDI1hytYTjAv2QG5Bh-41" value="Data Lake" style="text;html=1;align=center;verticalAlign=middle;whiteSpace=wrap;rounded=0;" vertex="1" parent="1">
          <mxGeometry x="330" y="560" width="60" height="30" as="geometry" />
        </mxCell>
        <mxCell id="5OTDI1hytYTjAv2QG5Bh-42" value="" style="shape=cylinder3;whiteSpace=wrap;html=1;boundedLbl=1;backgroundOutline=1;size=15;" vertex="1" parent="1">
          <mxGeometry x="418" y="480" width="60" height="80" as="geometry" />
        </mxCell>
        <mxCell id="5OTDI1hytYTjAv2QG5Bh-43" value="" style="ellipse;whiteSpace=wrap;html=1;aspect=fixed;" vertex="1" parent="1">
          <mxGeometry x="330" y="515" width="10" height="10" as="geometry" />
        </mxCell>
        <mxCell id="5OTDI1hytYTjAv2QG5Bh-44" value="" style="ellipse;whiteSpace=wrap;html=1;aspect=fixed;" vertex="1" parent="1">
          <mxGeometry x="350" y="515" width="10" height="10" as="geometry" />
        </mxCell>
        <mxCell id="5OTDI1hytYTjAv2QG5Bh-45" value="" style="ellipse;whiteSpace=wrap;html=1;aspect=fixed;" vertex="1" parent="1">
          <mxGeometry x="370" y="515" width="10" height="10" as="geometry" />
        </mxCell>
        <mxCell id="5OTDI1hytYTjAv2QG5Bh-46" value="" style="ellipse;whiteSpace=wrap;html=1;aspect=fixed;" vertex="1" parent="1">
          <mxGeometry x="390" y="515" width="10" height="10" as="geometry" />
        </mxCell>
        <mxCell id="5OTDI1hytYTjAv2QG5Bh-52" value="" style="rounded=0;whiteSpace=wrap;html=1;" vertex="1" parent="1">
          <mxGeometry x="280" y="190" width="250" height="60" as="geometry" />
        </mxCell>
        <mxCell id="5OTDI1hytYTjAv2QG5Bh-48" style="edgeStyle=orthogonalEdgeStyle;rounded=0;orthogonalLoop=1;jettySize=auto;html=1;exitX=0;exitY=0.5;exitDx=0;exitDy=0;entryX=0;entryY=0;entryDx=0;entryDy=52.5;entryPerimeter=0;" edge="1" parent="1" source="5OTDI1hytYTjAv2QG5Bh-27" target="5OTDI1hytYTjAv2QG5Bh-39">
          <mxGeometry relative="1" as="geometry" />
        </mxCell>
        <mxCell id="5OTDI1hytYTjAv2QG5Bh-49" style="edgeStyle=orthogonalEdgeStyle;rounded=0;orthogonalLoop=1;jettySize=auto;html=1;exitX=1;exitY=0.5;exitDx=0;exitDy=0;entryX=1;entryY=0;entryDx=0;entryDy=52.5;entryPerimeter=0;" edge="1" parent="1" source="5OTDI1hytYTjAv2QG5Bh-28" target="5OTDI1hytYTjAv2QG5Bh-42">
          <mxGeometry relative="1" as="geometry">
            <mxPoint x="492" y="530" as="targetPoint" />
          </mxGeometry>
        </mxCell>
        <mxCell id="5OTDI1hytYTjAv2QG5Bh-50" value="Online Feature Store" style="shape=cylinder3;whiteSpace=wrap;html=1;boundedLbl=1;backgroundOutline=1;size=15;" vertex="1" parent="1">
          <mxGeometry x="450" y="90" width="60" height="80" as="geometry" />
        </mxCell>
        <mxCell id="5OTDI1hytYTjAv2QG5Bh-51" value="Offline Feature Store" style="shape=cylinder3;whiteSpace=wrap;html=1;boundedLbl=1;backgroundOutline=1;size=15;" vertex="1" parent="1">
          <mxGeometry x="305" y="90" width="60" height="80" as="geometry" />
        </mxCell>
        <mxCell id="5OTDI1hytYTjAv2QG5Bh-53" value="Flink" style="text;html=1;align=center;verticalAlign=middle;whiteSpace=wrap;rounded=0;" vertex="1" parent="1">
          <mxGeometry x="375" y="220" width="60" height="30" as="geometry" />
        </mxCell>
        <mxCell id="5OTDI1hytYTjAv2QG5Bh-54" value="Processor" style="rounded=0;whiteSpace=wrap;html=1;" vertex="1" parent="1">
          <mxGeometry x="289" y="202.5" width="71" height="25" as="geometry" />
        </mxCell>
        <mxCell id="5OTDI1hytYTjAv2QG5Bh-55" value="Processor" style="rounded=0;whiteSpace=wrap;html=1;" vertex="1" parent="1">
          <mxGeometry x="450" y="202.5" width="72" height="25" as="geometry" />
        </mxCell>
        <mxCell id="5OTDI1hytYTjAv2QG5Bh-57" style="edgeStyle=orthogonalEdgeStyle;rounded=0;orthogonalLoop=1;jettySize=auto;html=1;exitX=0.5;exitY=0;exitDx=0;exitDy=0;entryX=0.5;entryY=1;entryDx=0;entryDy=0;exitPerimeter=0;" edge="1" parent="1" source="5OTDI1hytYTjAv2QG5Bh-20" target="5OTDI1hytYTjAv2QG5Bh-55">
          <mxGeometry relative="1" as="geometry" />
        </mxCell>
        <mxCell id="5OTDI1hytYTjAv2QG5Bh-56" style="edgeStyle=orthogonalEdgeStyle;rounded=0;orthogonalLoop=1;jettySize=auto;html=1;exitX=0.25;exitY=0;exitDx=0;exitDy=0;entryX=0.25;entryY=1;entryDx=0;entryDy=0;" edge="1" parent="1" source="5OTDI1hytYTjAv2QG5Bh-22" target="5OTDI1hytYTjAv2QG5Bh-54">
          <mxGeometry relative="1" as="geometry" />
        </mxCell>
        <mxCell id="5OTDI1hytYTjAv2QG5Bh-58" value="" style="ellipse;whiteSpace=wrap;html=1;aspect=fixed;" vertex="1" parent="1">
          <mxGeometry x="380" y="210" width="10" height="10" as="geometry" />
        </mxCell>
        <mxCell id="5OTDI1hytYTjAv2QG5Bh-59" value="" style="ellipse;whiteSpace=wrap;html=1;aspect=fixed;" vertex="1" parent="1">
          <mxGeometry x="400" y="210" width="10" height="10" as="geometry" />
        </mxCell>
        <mxCell id="5OTDI1hytYTjAv2QG5Bh-60" value="" style="ellipse;whiteSpace=wrap;html=1;aspect=fixed;" vertex="1" parent="1">
          <mxGeometry x="420" y="210" width="10" height="10" as="geometry" />
        </mxCell>
        <mxCell id="5OTDI1hytYTjAv2QG5Bh-61" style="edgeStyle=orthogonalEdgeStyle;rounded=0;orthogonalLoop=1;jettySize=auto;html=1;exitX=0.5;exitY=0;exitDx=0;exitDy=0;entryX=0.417;entryY=1;entryDx=0;entryDy=0;entryPerimeter=0;" edge="1" parent="1" source="5OTDI1hytYTjAv2QG5Bh-54" target="5OTDI1hytYTjAv2QG5Bh-51">
          <mxGeometry relative="1" as="geometry" />
        </mxCell>
        <mxCell id="5OTDI1hytYTjAv2QG5Bh-62" style="edgeStyle=orthogonalEdgeStyle;rounded=0;orthogonalLoop=1;jettySize=auto;html=1;exitX=0.5;exitY=0;exitDx=0;exitDy=0;entryX=0.5;entryY=1;entryDx=0;entryDy=0;entryPerimeter=0;" edge="1" parent="1" source="5OTDI1hytYTjAv2QG5Bh-55" target="5OTDI1hytYTjAv2QG5Bh-50">
          <mxGeometry relative="1" as="geometry" />
        </mxCell>
        <mxCell id="5OTDI1hytYTjAv2QG5Bh-63" value="Airflow" style="rounded=0;whiteSpace=wrap;html=1;" vertex="1" parent="1">
          <mxGeometry x="590" y="545" width="120" height="60" as="geometry" />
        </mxCell>
        <mxCell id="5OTDI1hytYTjAv2QG5Bh-64" style="edgeStyle=orthogonalEdgeStyle;rounded=0;orthogonalLoop=1;jettySize=auto;html=1;exitX=0.5;exitY=1;exitDx=0;exitDy=0;" edge="1" parent="1" source="5OTDI1hytYTjAv2QG5Bh-63" target="5OTDI1hytYTjAv2QG5Bh-63">
          <mxGeometry relative="1" as="geometry" />
        </mxCell>
      </root>
    </mxGraphModel>
  </diagram>
</mxfile>
